<mxfile host="app.diagrams.net" agent="Mozilla/5.0 (Windows NT 10.0; Win64; x64) AppleWebKit/537.36 (KHTML, like Gecko) Chrome/131.0.0.0 Safari/537.36 Edg/131.0.0.0" version="24.8.9">
  <diagram name="Page-1" id="_2EcSWKEMOPf_RvtdHag">
    <mxGraphModel dx="1955" dy="869" grid="1" gridSize="10" guides="1" tooltips="1" connect="1" arrows="1" fold="1" page="1" pageScale="1" pageWidth="827" pageHeight="1169" math="0" shadow="0">
      <root>
        <mxCell id="0" />
        <mxCell id="1" parent="0" />
        <mxCell id="R-niYR7ABskK2KZZOQ8J-1" value="ทบทวนสัญลักษณ์" style="swimlane;fontFamily=Sarabun;fontSource=https%3A%2F%2Ffonts.googleapis.com%2Fcss%3Ffamily%3DSarabun;" vertex="1" parent="1">
          <mxGeometry x="-720" y="20" width="650" height="290" as="geometry" />
        </mxCell>
        <mxCell id="R-niYR7ABskK2KZZOQ8J-2" value="&lt;font data-font-src=&quot;https://fonts.googleapis.com/css?family=Sarabun&quot; face=&quot;Sarabun&quot;&gt;เริ่มต้น&lt;/font&gt;" style="ellipse;whiteSpace=wrap;html=1;" vertex="1" parent="R-niYR7ABskK2KZZOQ8J-1">
          <mxGeometry x="20" y="40" width="130" height="30" as="geometry" />
        </mxCell>
        <mxCell id="R-niYR7ABskK2KZZOQ8J-3" value="" style="endArrow=classic;html=1;rounded=0;" edge="1" parent="R-niYR7ABskK2KZZOQ8J-1">
          <mxGeometry width="50" height="50" relative="1" as="geometry">
            <mxPoint x="84.5" y="70" as="sourcePoint" />
            <mxPoint x="84.5" y="120" as="targetPoint" />
          </mxGeometry>
        </mxCell>
        <mxCell id="R-niYR7ABskK2KZZOQ8J-4" value="&lt;font face=&quot;Sarabun&quot;&gt;สิ้นสุด&lt;/font&gt;" style="ellipse;whiteSpace=wrap;html=1;" vertex="1" parent="R-niYR7ABskK2KZZOQ8J-1">
          <mxGeometry x="150" y="90" width="130" height="30" as="geometry" />
        </mxCell>
        <mxCell id="R-niYR7ABskK2KZZOQ8J-5" value="" style="endArrow=classic;html=1;rounded=0;" edge="1" parent="R-niYR7ABskK2KZZOQ8J-1">
          <mxGeometry width="50" height="50" relative="1" as="geometry">
            <mxPoint x="214.5" y="40" as="sourcePoint" />
            <mxPoint x="214.5" y="90" as="targetPoint" />
          </mxGeometry>
        </mxCell>
        <mxCell id="R-niYR7ABskK2KZZOQ8J-6" value="กระบวนการ" style="rounded=0;whiteSpace=wrap;html=1;fontFamily=Sarabun;fontSource=https%3A%2F%2Ffonts.googleapis.com%2Fcss%3Ffamily%3DSarabun;" vertex="1" parent="R-niYR7ABskK2KZZOQ8J-1">
          <mxGeometry x="320" y="70" width="120" height="30" as="geometry" />
        </mxCell>
        <mxCell id="R-niYR7ABskK2KZZOQ8J-7" value="" style="endArrow=classic;html=1;rounded=0;" edge="1" parent="R-niYR7ABskK2KZZOQ8J-1">
          <mxGeometry width="50" height="50" relative="1" as="geometry">
            <mxPoint x="379" y="40" as="sourcePoint" />
            <mxPoint x="379.5" y="70" as="targetPoint" />
          </mxGeometry>
        </mxCell>
        <mxCell id="R-niYR7ABskK2KZZOQ8J-8" value="" style="endArrow=classic;html=1;rounded=0;" edge="1" parent="R-niYR7ABskK2KZZOQ8J-1">
          <mxGeometry width="50" height="50" relative="1" as="geometry">
            <mxPoint x="379.75" y="100" as="sourcePoint" />
            <mxPoint x="380.25" y="130" as="targetPoint" />
          </mxGeometry>
        </mxCell>
        <mxCell id="R-niYR7ABskK2KZZOQ8J-9" value="ประโยคเงื่อนไข" style="rhombus;whiteSpace=wrap;html=1;fontFamily=Sarabun;fontSource=https%3A%2F%2Ffonts.googleapis.com%2Fcss%3Ffamily%3DSarabun;" vertex="1" parent="R-niYR7ABskK2KZZOQ8J-1">
          <mxGeometry x="490" y="60" width="100" height="60" as="geometry" />
        </mxCell>
        <mxCell id="R-niYR7ABskK2KZZOQ8J-10" value="" style="endArrow=classic;html=1;rounded=0;" edge="1" parent="R-niYR7ABskK2KZZOQ8J-1">
          <mxGeometry width="50" height="50" relative="1" as="geometry">
            <mxPoint x="539.71" y="30" as="sourcePoint" />
            <mxPoint x="540.21" y="60" as="targetPoint" />
          </mxGeometry>
        </mxCell>
        <mxCell id="R-niYR7ABskK2KZZOQ8J-11" value="" style="endArrow=classic;html=1;rounded=0;" edge="1" parent="R-niYR7ABskK2KZZOQ8J-1">
          <mxGeometry width="50" height="50" relative="1" as="geometry">
            <mxPoint x="539.71" y="120" as="sourcePoint" />
            <mxPoint x="540" y="175" as="targetPoint" />
          </mxGeometry>
        </mxCell>
        <mxCell id="R-niYR7ABskK2KZZOQ8J-12" value="จริง" style="edgeLabel;html=1;align=center;verticalAlign=middle;resizable=0;points=[];fontFamily=Sarabun;fontSource=https%3A%2F%2Ffonts.googleapis.com%2Fcss%3Ffamily%3DSarabun;" vertex="1" connectable="0" parent="R-niYR7ABskK2KZZOQ8J-11">
          <mxGeometry x="-0.4142" y="-1" relative="1" as="geometry">
            <mxPoint as="offset" />
          </mxGeometry>
        </mxCell>
        <mxCell id="R-niYR7ABskK2KZZOQ8J-13" value="" style="endArrow=classic;html=1;rounded=0;exitX=1;exitY=0.5;exitDx=0;exitDy=0;" edge="1" parent="R-niYR7ABskK2KZZOQ8J-1" source="R-niYR7ABskK2KZZOQ8J-9">
          <mxGeometry width="50" height="50" relative="1" as="geometry">
            <mxPoint x="620" y="95" as="sourcePoint" />
            <mxPoint x="610" y="175" as="targetPoint" />
            <Array as="points">
              <mxPoint x="610" y="90" />
            </Array>
          </mxGeometry>
        </mxCell>
        <mxCell id="R-niYR7ABskK2KZZOQ8J-14" value="&lt;font data-font-src=&quot;https://fonts.googleapis.com/css?family=Sarabun&quot; face=&quot;Sarabun&quot;&gt;เท็จ&lt;/font&gt;" style="edgeLabel;html=1;align=center;verticalAlign=middle;resizable=0;points=[];" vertex="1" connectable="0" parent="R-niYR7ABskK2KZZOQ8J-13">
          <mxGeometry x="-0.0019" y="-2" relative="1" as="geometry">
            <mxPoint as="offset" />
          </mxGeometry>
        </mxCell>
        <mxCell id="R-niYR7ABskK2KZZOQ8J-15" value="&lt;font data-font-src=&quot;https://fonts.googleapis.com/css?family=Sarabun&quot; face=&quot;Sarabun&quot;&gt;ฟังก์ชัน/โมดูล&lt;/font&gt;" style="shape=process;whiteSpace=wrap;html=1;backgroundOutline=1;" vertex="1" parent="R-niYR7ABskK2KZZOQ8J-1">
          <mxGeometry x="25" y="180" width="120" height="30" as="geometry" />
        </mxCell>
        <mxCell id="R-niYR7ABskK2KZZOQ8J-16" value="" style="endArrow=classic;html=1;rounded=0;" edge="1" parent="R-niYR7ABskK2KZZOQ8J-1">
          <mxGeometry width="50" height="50" relative="1" as="geometry">
            <mxPoint x="84.70999999999998" y="150" as="sourcePoint" />
            <mxPoint x="85.20999999999998" y="180" as="targetPoint" />
          </mxGeometry>
        </mxCell>
        <mxCell id="R-niYR7ABskK2KZZOQ8J-17" value="" style="endArrow=classic;html=1;rounded=0;" edge="1" parent="R-niYR7ABskK2KZZOQ8J-1">
          <mxGeometry width="50" height="50" relative="1" as="geometry">
            <mxPoint x="84.70999999999998" y="210" as="sourcePoint" />
            <mxPoint x="85.20999999999998" y="240" as="targetPoint" />
          </mxGeometry>
        </mxCell>
        <mxCell id="R-niYR7ABskK2KZZOQ8J-18" value="" style="strokeWidth=2;html=1;shape=mxgraph.flowchart.start_2;whiteSpace=wrap;" vertex="1" parent="R-niYR7ABskK2KZZOQ8J-1">
          <mxGeometry x="205" y="185" width="20" height="20" as="geometry" />
        </mxCell>
        <mxCell id="R-niYR7ABskK2KZZOQ8J-19" value="" style="endArrow=classic;html=1;rounded=0;" edge="1" parent="R-niYR7ABskK2KZZOQ8J-1">
          <mxGeometry width="50" height="50" relative="1" as="geometry">
            <mxPoint x="214.70999999999998" y="155" as="sourcePoint" />
            <mxPoint x="215.20999999999998" y="185" as="targetPoint" />
          </mxGeometry>
        </mxCell>
        <mxCell id="R-niYR7ABskK2KZZOQ8J-20" value="" style="endArrow=classic;html=1;rounded=0;entryX=0;entryY=0.5;entryDx=0;entryDy=0;entryPerimeter=0;" edge="1" parent="R-niYR7ABskK2KZZOQ8J-1" target="R-niYR7ABskK2KZZOQ8J-18">
          <mxGeometry width="50" height="50" relative="1" as="geometry">
            <mxPoint x="189.99999999999997" y="155" as="sourcePoint" />
            <mxPoint x="190.49999999999997" y="185" as="targetPoint" />
            <Array as="points">
              <mxPoint x="190" y="180" />
            </Array>
          </mxGeometry>
        </mxCell>
        <mxCell id="R-niYR7ABskK2KZZOQ8J-21" value="" style="endArrow=classic;html=1;rounded=0;entryX=1;entryY=0.5;entryDx=0;entryDy=0;entryPerimeter=0;" edge="1" parent="R-niYR7ABskK2KZZOQ8J-1" target="R-niYR7ABskK2KZZOQ8J-18">
          <mxGeometry width="50" height="50" relative="1" as="geometry">
            <mxPoint x="239.99999999999997" y="155" as="sourcePoint" />
            <mxPoint x="240.49999999999997" y="185" as="targetPoint" />
            <Array as="points">
              <mxPoint x="240" y="180" />
            </Array>
          </mxGeometry>
        </mxCell>
        <mxCell id="R-niYR7ABskK2KZZOQ8J-22" value="" style="endArrow=classic;html=1;rounded=0;" edge="1" parent="R-niYR7ABskK2KZZOQ8J-1">
          <mxGeometry width="50" height="50" relative="1" as="geometry">
            <mxPoint x="214.70999999999998" y="205" as="sourcePoint" />
            <mxPoint x="215.20999999999998" y="235" as="targetPoint" />
          </mxGeometry>
        </mxCell>
        <mxCell id="R-niYR7ABskK2KZZOQ8J-23" value="&lt;font data-font-src=&quot;https://fonts.googleapis.com/css?family=Sarabun&quot; face=&quot;Sarabun&quot;&gt;ตัวเชื่อม&lt;/font&gt;" style="text;html=1;align=center;verticalAlign=middle;resizable=0;points=[];autosize=1;strokeColor=none;fillColor=none;" vertex="1" parent="R-niYR7ABskK2KZZOQ8J-1">
          <mxGeometry x="220" y="190" width="60" height="30" as="geometry" />
        </mxCell>
        <mxCell id="R-niYR7ABskK2KZZOQ8J-24" value="" style="endArrow=classic;html=1;rounded=0;" edge="1" parent="R-niYR7ABskK2KZZOQ8J-1">
          <mxGeometry width="50" height="50" relative="1" as="geometry">
            <mxPoint x="353.71" y="165" as="sourcePoint" />
            <mxPoint x="354.21" y="195" as="targetPoint" />
          </mxGeometry>
        </mxCell>
        <mxCell id="R-niYR7ABskK2KZZOQ8J-25" value="" style="verticalLabelPosition=bottom;verticalAlign=top;html=1;shape=offPageConnector;rounded=0;size=0.5;" vertex="1" parent="R-niYR7ABskK2KZZOQ8J-1">
          <mxGeometry x="339" y="195" width="30" height="30" as="geometry" />
        </mxCell>
        <mxCell id="R-niYR7ABskK2KZZOQ8J-26" value="" style="endArrow=classic;html=1;rounded=0;" edge="1" parent="R-niYR7ABskK2KZZOQ8J-1">
          <mxGeometry width="50" height="50" relative="1" as="geometry">
            <mxPoint x="405.71" y="195" as="sourcePoint" />
            <mxPoint x="406.21" y="225" as="targetPoint" />
          </mxGeometry>
        </mxCell>
        <mxCell id="R-niYR7ABskK2KZZOQ8J-27" value="" style="verticalLabelPosition=bottom;verticalAlign=top;html=1;shape=offPageConnector;rounded=0;size=0.5;" vertex="1" parent="R-niYR7ABskK2KZZOQ8J-1">
          <mxGeometry x="391" y="165" width="30" height="30" as="geometry" />
        </mxCell>
        <mxCell id="R-niYR7ABskK2KZZOQ8J-28" value="หน้าต่อไป" style="text;html=1;align=center;verticalAlign=middle;resizable=0;points=[];autosize=1;strokeColor=none;fillColor=none;fontFamily=Sarabun;fontSource=https%3A%2F%2Ffonts.googleapis.com%2Fcss%3Ffamily%3DSarabun;" vertex="1" parent="R-niYR7ABskK2KZZOQ8J-1">
          <mxGeometry x="345" y="220" width="70" height="30" as="geometry" />
        </mxCell>
        <mxCell id="R-niYR7ABskK2KZZOQ8J-29" value="ก" style="text;html=1;align=center;verticalAlign=middle;resizable=0;points=[];autosize=1;strokeColor=none;fillColor=none;fontFamily=Sarabun;fontSource=https%3A%2F%2Ffonts.googleapis.com%2Fcss%3Ffamily%3DSarabun;" vertex="1" parent="R-niYR7ABskK2KZZOQ8J-1">
          <mxGeometry x="339" y="190" width="30" height="30" as="geometry" />
        </mxCell>
        <mxCell id="R-niYR7ABskK2KZZOQ8J-30" value="ก" style="text;html=1;align=center;verticalAlign=middle;resizable=0;points=[];autosize=1;strokeColor=none;fillColor=none;fontFamily=Sarabun;fontSource=https%3A%2F%2Ffonts.googleapis.com%2Fcss%3Ffamily%3DSarabun;" vertex="1" parent="R-niYR7ABskK2KZZOQ8J-1">
          <mxGeometry x="391" y="160" width="30" height="30" as="geometry" />
        </mxCell>
        <mxCell id="R-niYR7ABskK2KZZOQ8J-31" value="แสดงผล/รับค่า" style="shape=parallelogram;perimeter=parallelogramPerimeter;whiteSpace=wrap;html=1;fixedSize=1;fontFamily=Sarabun;fontSource=https%3A%2F%2Ffonts.googleapis.com%2Fcss%3Ffamily%3DSarabun;" vertex="1" parent="R-niYR7ABskK2KZZOQ8J-1">
          <mxGeometry x="450" y="210" width="120" height="30" as="geometry" />
        </mxCell>
        <mxCell id="R-niYR7ABskK2KZZOQ8J-32" value="" style="endArrow=classic;html=1;rounded=0;" edge="1" parent="R-niYR7ABskK2KZZOQ8J-1">
          <mxGeometry width="50" height="50" relative="1" as="geometry">
            <mxPoint x="509.71" y="180" as="sourcePoint" />
            <mxPoint x="510.21" y="210" as="targetPoint" />
          </mxGeometry>
        </mxCell>
        <mxCell id="R-niYR7ABskK2KZZOQ8J-33" value="" style="endArrow=classic;html=1;rounded=0;" edge="1" parent="R-niYR7ABskK2KZZOQ8J-1">
          <mxGeometry width="50" height="50" relative="1" as="geometry">
            <mxPoint x="509.71" y="240" as="sourcePoint" />
            <mxPoint x="510.21" y="270" as="targetPoint" />
          </mxGeometry>
        </mxCell>
        <mxCell id="R-niYR7ABskK2KZZOQ8J-34" value="แก้ไขโจทย์ปัญหา" style="swimlane;fontFamily=Sarabun;fontSource=https%3A%2F%2Ffonts.googleapis.com%2Fcss%3Ffamily%3DSarabun;" vertex="1" parent="1">
          <mxGeometry x="-730" y="520" width="630" height="1520" as="geometry" />
        </mxCell>
        <mxCell id="R-niYR7ABskK2KZZOQ8J-61" value="" style="edgeStyle=orthogonalEdgeStyle;rounded=0;orthogonalLoop=1;jettySize=auto;html=1;" edge="1" parent="R-niYR7ABskK2KZZOQ8J-34" source="R-niYR7ABskK2KZZOQ8J-35" target="R-niYR7ABskK2KZZOQ8J-42">
          <mxGeometry relative="1" as="geometry" />
        </mxCell>
        <mxCell id="R-niYR7ABskK2KZZOQ8J-35" value="&lt;font data-font-src=&quot;https://fonts.googleapis.com/css?family=Sarabun&quot; face=&quot;Sarabun&quot;&gt;เริ่มต้น&lt;/font&gt;" style="ellipse;whiteSpace=wrap;html=1;" vertex="1" parent="R-niYR7ABskK2KZZOQ8J-34">
          <mxGeometry x="250" y="40" width="130" height="30" as="geometry" />
        </mxCell>
        <mxCell id="R-niYR7ABskK2KZZOQ8J-36" value="&lt;font face=&quot;Sarabun&quot;&gt;สิ้นสุด&lt;/font&gt;" style="ellipse;whiteSpace=wrap;html=1;" vertex="1" parent="R-niYR7ABskK2KZZOQ8J-34">
          <mxGeometry x="250" y="1470" width="130" height="30" as="geometry" />
        </mxCell>
        <mxCell id="R-niYR7ABskK2KZZOQ8J-60" value="" style="edgeStyle=orthogonalEdgeStyle;rounded=0;orthogonalLoop=1;jettySize=auto;html=1;" edge="1" parent="R-niYR7ABskK2KZZOQ8J-34" source="R-niYR7ABskK2KZZOQ8J-39" target="R-niYR7ABskK2KZZOQ8J-42">
          <mxGeometry relative="1" as="geometry" />
        </mxCell>
        <mxCell id="R-niYR7ABskK2KZZOQ8J-39" value="โพสต์ในแพลตฟอร์มออนไลน์ " style="rounded=0;whiteSpace=wrap;html=1;fontFamily=Sarabun;fontSource=https%3A%2F%2Ffonts.googleapis.com%2Fcss%3Ffamily%3DSarabun;" vertex="1" parent="R-niYR7ABskK2KZZOQ8J-34">
          <mxGeometry x="255" y="110" width="120" height="30" as="geometry" />
        </mxCell>
        <mxCell id="R-niYR7ABskK2KZZOQ8J-57" value="" style="edgeStyle=orthogonalEdgeStyle;rounded=0;orthogonalLoop=1;jettySize=auto;html=1;" edge="1" parent="R-niYR7ABskK2KZZOQ8J-34" source="R-niYR7ABskK2KZZOQ8J-40" target="R-niYR7ABskK2KZZOQ8J-56">
          <mxGeometry relative="1" as="geometry" />
        </mxCell>
        <mxCell id="R-niYR7ABskK2KZZOQ8J-97" value="" style="edgeStyle=orthogonalEdgeStyle;rounded=0;orthogonalLoop=1;jettySize=auto;html=1;" edge="1" parent="R-niYR7ABskK2KZZOQ8J-34" source="R-niYR7ABskK2KZZOQ8J-40" target="R-niYR7ABskK2KZZOQ8J-95">
          <mxGeometry relative="1" as="geometry" />
        </mxCell>
        <mxCell id="R-niYR7ABskK2KZZOQ8J-40" value="ลูกค้าสนใจทำเว็บไซต์จริงหรือไม่?" style="rhombus;whiteSpace=wrap;html=1;fontFamily=Sarabun;fontSource=https%3A%2F%2Ffonts.googleapis.com%2Fcss%3Ffamily%3DSarabun;" vertex="1" parent="R-niYR7ABskK2KZZOQ8J-34">
          <mxGeometry x="255" y="320" width="120" height="60" as="geometry" />
        </mxCell>
        <mxCell id="R-niYR7ABskK2KZZOQ8J-72" value="" style="edgeStyle=orthogonalEdgeStyle;rounded=0;orthogonalLoop=1;jettySize=auto;html=1;" edge="1" parent="R-niYR7ABskK2KZZOQ8J-34" source="R-niYR7ABskK2KZZOQ8J-42" target="R-niYR7ABskK2KZZOQ8J-43">
          <mxGeometry relative="1" as="geometry" />
        </mxCell>
        <mxCell id="R-niYR7ABskK2KZZOQ8J-42" value="แสดงตัวอย่างงานที่ผ่านมา พร้อมข้อมูลติดต่อ " style="rounded=0;whiteSpace=wrap;html=1;fontFamily=Sarabun;fontSource=https%3A%2F%2Ffonts.googleapis.com%2Fcss%3Ffamily%3DSarabun;" vertex="1" parent="R-niYR7ABskK2KZZOQ8J-34">
          <mxGeometry x="255" y="180" width="120" height="30" as="geometry" />
        </mxCell>
        <mxCell id="R-niYR7ABskK2KZZOQ8J-45" value="" style="edgeStyle=orthogonalEdgeStyle;rounded=0;orthogonalLoop=1;jettySize=auto;html=1;" edge="1" parent="R-niYR7ABskK2KZZOQ8J-34" source="R-niYR7ABskK2KZZOQ8J-43" target="R-niYR7ABskK2KZZOQ8J-40">
          <mxGeometry relative="1" as="geometry" />
        </mxCell>
        <mxCell id="R-niYR7ABskK2KZZOQ8J-43" value="ลูกค้าติดต่อสอบถาม " style="rounded=0;whiteSpace=wrap;html=1;fontFamily=Sarabun;fontSource=https%3A%2F%2Ffonts.googleapis.com%2Fcss%3Ffamily%3DSarabun;" vertex="1" parent="R-niYR7ABskK2KZZOQ8J-34">
          <mxGeometry x="255" y="250" width="120" height="30" as="geometry" />
        </mxCell>
        <mxCell id="R-niYR7ABskK2KZZOQ8J-71" value="" style="edgeStyle=orthogonalEdgeStyle;rounded=0;orthogonalLoop=1;jettySize=auto;html=1;" edge="1" parent="R-niYR7ABskK2KZZOQ8J-34" source="R-niYR7ABskK2KZZOQ8J-56" target="R-niYR7ABskK2KZZOQ8J-69">
          <mxGeometry relative="1" as="geometry" />
        </mxCell>
        <mxCell id="R-niYR7ABskK2KZZOQ8J-56" value="ถามลูกค้าถึงงบประมาณและความต้องการเบื้องต้น " style="rounded=0;whiteSpace=wrap;html=1;fontFamily=Sarabun;fontSource=https%3A%2F%2Ffonts.googleapis.com%2Fcss%3Ffamily%3DSarabun;" vertex="1" parent="R-niYR7ABskK2KZZOQ8J-34">
          <mxGeometry x="255" y="420" width="120" height="50" as="geometry" />
        </mxCell>
        <mxCell id="R-niYR7ABskK2KZZOQ8J-65" value="ไม่ใช่" style="text;strokeColor=none;fillColor=none;align=left;verticalAlign=middle;spacingLeft=4;spacingRight=4;overflow=hidden;points=[[0,0.5],[1,0.5]];portConstraint=eastwest;rotatable=0;whiteSpace=wrap;html=1;" vertex="1" parent="R-niYR7ABskK2KZZOQ8J-34">
          <mxGeometry x="240" y="310" width="40" height="30" as="geometry" />
        </mxCell>
        <mxCell id="R-niYR7ABskK2KZZOQ8J-66" value="ใช่" style="text;strokeColor=none;fillColor=none;align=left;verticalAlign=middle;spacingLeft=4;spacingRight=4;overflow=hidden;points=[[0,0.5],[1,0.5]];portConstraint=eastwest;rotatable=0;whiteSpace=wrap;html=1;" vertex="1" parent="R-niYR7ABskK2KZZOQ8J-34">
          <mxGeometry x="320" y="380" width="40" height="30" as="geometry" />
        </mxCell>
        <mxCell id="R-niYR7ABskK2KZZOQ8J-75" value="" style="edgeStyle=orthogonalEdgeStyle;rounded=0;orthogonalLoop=1;jettySize=auto;html=1;" edge="1" parent="R-niYR7ABskK2KZZOQ8J-34" source="R-niYR7ABskK2KZZOQ8J-69" target="R-niYR7ABskK2KZZOQ8J-74">
          <mxGeometry relative="1" as="geometry" />
        </mxCell>
        <mxCell id="R-niYR7ABskK2KZZOQ8J-98" value="" style="edgeStyle=orthogonalEdgeStyle;rounded=0;orthogonalLoop=1;jettySize=auto;html=1;" edge="1" parent="R-niYR7ABskK2KZZOQ8J-34" source="R-niYR7ABskK2KZZOQ8J-69" target="R-niYR7ABskK2KZZOQ8J-95">
          <mxGeometry relative="1" as="geometry" />
        </mxCell>
        <mxCell id="R-niYR7ABskK2KZZOQ8J-69" value="ลูกค้ามีงบประมาณ&lt;div&gt;หรือไม่?&lt;/div&gt;" style="rhombus;whiteSpace=wrap;html=1;fontFamily=Sarabun;fontSource=https%3A%2F%2Ffonts.googleapis.com%2Fcss%3Ffamily%3DSarabun;" vertex="1" parent="R-niYR7ABskK2KZZOQ8J-34">
          <mxGeometry x="255" y="510" width="120" height="60" as="geometry" />
        </mxCell>
        <mxCell id="R-niYR7ABskK2KZZOQ8J-79" value="" style="edgeStyle=orthogonalEdgeStyle;rounded=0;orthogonalLoop=1;jettySize=auto;html=1;" edge="1" parent="R-niYR7ABskK2KZZOQ8J-34" source="R-niYR7ABskK2KZZOQ8J-74" target="R-niYR7ABskK2KZZOQ8J-78">
          <mxGeometry relative="1" as="geometry" />
        </mxCell>
        <mxCell id="R-niYR7ABskK2KZZOQ8J-74" value="พูดคุยความต้องการของลูกค้า " style="rounded=0;whiteSpace=wrap;html=1;fontFamily=Sarabun;fontSource=https%3A%2F%2Ffonts.googleapis.com%2Fcss%3Ffamily%3DSarabun;" vertex="1" parent="R-niYR7ABskK2KZZOQ8J-34">
          <mxGeometry x="255" y="610" width="120" height="40" as="geometry" />
        </mxCell>
        <mxCell id="R-niYR7ABskK2KZZOQ8J-76" value="ใช่" style="text;strokeColor=none;fillColor=none;align=left;verticalAlign=middle;spacingLeft=4;spacingRight=4;overflow=hidden;points=[[0,0.5],[1,0.5]];portConstraint=eastwest;rotatable=0;whiteSpace=wrap;html=1;" vertex="1" parent="R-niYR7ABskK2KZZOQ8J-34">
          <mxGeometry x="317" y="570" width="40" height="30" as="geometry" />
        </mxCell>
        <mxCell id="R-niYR7ABskK2KZZOQ8J-77" value="ไม่ใช่" style="text;strokeColor=none;fillColor=none;align=left;verticalAlign=middle;spacingLeft=4;spacingRight=4;overflow=hidden;points=[[0,0.5],[1,0.5]];portConstraint=eastwest;rotatable=0;whiteSpace=wrap;html=1;" vertex="1" parent="R-niYR7ABskK2KZZOQ8J-34">
          <mxGeometry x="240" y="500" width="40" height="30" as="geometry" />
        </mxCell>
        <mxCell id="R-niYR7ABskK2KZZOQ8J-81" value="" style="edgeStyle=orthogonalEdgeStyle;rounded=0;orthogonalLoop=1;jettySize=auto;html=1;" edge="1" parent="R-niYR7ABskK2KZZOQ8J-34" source="R-niYR7ABskK2KZZOQ8J-78" target="R-niYR7ABskK2KZZOQ8J-80">
          <mxGeometry relative="1" as="geometry" />
        </mxCell>
        <mxCell id="R-niYR7ABskK2KZZOQ8J-78" value="เสนอราคาและระยะเวลา " style="rounded=0;whiteSpace=wrap;html=1;fontFamily=Sarabun;fontSource=https%3A%2F%2Ffonts.googleapis.com%2Fcss%3Ffamily%3DSarabun;" vertex="1" parent="R-niYR7ABskK2KZZOQ8J-34">
          <mxGeometry x="255" y="690" width="120" height="40" as="geometry" />
        </mxCell>
        <mxCell id="R-niYR7ABskK2KZZOQ8J-83" value="" style="edgeStyle=orthogonalEdgeStyle;rounded=0;orthogonalLoop=1;jettySize=auto;html=1;" edge="1" parent="R-niYR7ABskK2KZZOQ8J-34" source="R-niYR7ABskK2KZZOQ8J-80" target="R-niYR7ABskK2KZZOQ8J-82">
          <mxGeometry relative="1" as="geometry" />
        </mxCell>
        <mxCell id="R-niYR7ABskK2KZZOQ8J-80" value="ส่งใบเสนอราคา " style="rounded=0;whiteSpace=wrap;html=1;fontFamily=Sarabun;fontSource=https%3A%2F%2Ffonts.googleapis.com%2Fcss%3Ffamily%3DSarabun;" vertex="1" parent="R-niYR7ABskK2KZZOQ8J-34">
          <mxGeometry x="255" y="770" width="120" height="40" as="geometry" />
        </mxCell>
        <mxCell id="R-niYR7ABskK2KZZOQ8J-87" value="" style="edgeStyle=orthogonalEdgeStyle;rounded=0;orthogonalLoop=1;jettySize=auto;html=1;" edge="1" parent="R-niYR7ABskK2KZZOQ8J-34" source="R-niYR7ABskK2KZZOQ8J-82" target="R-niYR7ABskK2KZZOQ8J-86">
          <mxGeometry relative="1" as="geometry" />
        </mxCell>
        <mxCell id="R-niYR7ABskK2KZZOQ8J-101" value="" style="edgeStyle=orthogonalEdgeStyle;rounded=0;orthogonalLoop=1;jettySize=auto;html=1;" edge="1" parent="R-niYR7ABskK2KZZOQ8J-34" source="R-niYR7ABskK2KZZOQ8J-82" target="R-niYR7ABskK2KZZOQ8J-96">
          <mxGeometry relative="1" as="geometry" />
        </mxCell>
        <mxCell id="R-niYR7ABskK2KZZOQ8J-82" value="ลูกค้าตกลงหรือไม่?" style="rhombus;whiteSpace=wrap;html=1;fontFamily=Sarabun;fontSource=https%3A%2F%2Ffonts.googleapis.com%2Fcss%3Ffamily%3DSarabun;" vertex="1" parent="R-niYR7ABskK2KZZOQ8J-34">
          <mxGeometry x="255" y="840" width="120" height="60" as="geometry" />
        </mxCell>
        <mxCell id="R-niYR7ABskK2KZZOQ8J-84" value="ใช่" style="text;strokeColor=none;fillColor=none;align=left;verticalAlign=middle;spacingLeft=4;spacingRight=4;overflow=hidden;points=[[0,0.5],[1,0.5]];portConstraint=eastwest;rotatable=0;whiteSpace=wrap;html=1;" vertex="1" parent="R-niYR7ABskK2KZZOQ8J-34">
          <mxGeometry x="327" y="900" width="40" height="30" as="geometry" />
        </mxCell>
        <mxCell id="R-niYR7ABskK2KZZOQ8J-85" value="ไม่ใช่" style="text;strokeColor=none;fillColor=none;align=left;verticalAlign=middle;spacingLeft=4;spacingRight=4;overflow=hidden;points=[[0,0.5],[1,0.5]];portConstraint=eastwest;rotatable=0;whiteSpace=wrap;html=1;" vertex="1" parent="R-niYR7ABskK2KZZOQ8J-34">
          <mxGeometry x="230" y="830" width="40" height="30" as="geometry" />
        </mxCell>
        <mxCell id="R-niYR7ABskK2KZZOQ8J-91" value="" style="edgeStyle=orthogonalEdgeStyle;rounded=0;orthogonalLoop=1;jettySize=auto;html=1;" edge="1" parent="R-niYR7ABskK2KZZOQ8J-34" source="R-niYR7ABskK2KZZOQ8J-86" target="R-niYR7ABskK2KZZOQ8J-88">
          <mxGeometry relative="1" as="geometry" />
        </mxCell>
        <mxCell id="R-niYR7ABskK2KZZOQ8J-86" value="เซ็นต์สัญญาและรับเงินมัดจำ " style="rounded=0;whiteSpace=wrap;html=1;fontFamily=Sarabun;fontSource=https%3A%2F%2Ffonts.googleapis.com%2Fcss%3Ffamily%3DSarabun;" vertex="1" parent="R-niYR7ABskK2KZZOQ8J-34">
          <mxGeometry x="255" y="950" width="120" height="40" as="geometry" />
        </mxCell>
        <mxCell id="R-niYR7ABskK2KZZOQ8J-92" value="" style="edgeStyle=orthogonalEdgeStyle;rounded=0;orthogonalLoop=1;jettySize=auto;html=1;" edge="1" parent="R-niYR7ABskK2KZZOQ8J-34" source="R-niYR7ABskK2KZZOQ8J-88" target="R-niYR7ABskK2KZZOQ8J-89">
          <mxGeometry relative="1" as="geometry" />
        </mxCell>
        <mxCell id="R-niYR7ABskK2KZZOQ8J-88" value="เริ่มพัฒนาเว็บไซต์ " style="rounded=0;whiteSpace=wrap;html=1;fontFamily=Sarabun;fontSource=https%3A%2F%2Ffonts.googleapis.com%2Fcss%3Ffamily%3DSarabun;" vertex="1" parent="R-niYR7ABskK2KZZOQ8J-34">
          <mxGeometry x="255" y="1040" width="120" height="40" as="geometry" />
        </mxCell>
        <mxCell id="R-niYR7ABskK2KZZOQ8J-93" value="" style="edgeStyle=orthogonalEdgeStyle;rounded=0;orthogonalLoop=1;jettySize=auto;html=1;" edge="1" parent="R-niYR7ABskK2KZZOQ8J-34" source="R-niYR7ABskK2KZZOQ8J-89" target="R-niYR7ABskK2KZZOQ8J-90">
          <mxGeometry relative="1" as="geometry" />
        </mxCell>
        <mxCell id="R-niYR7ABskK2KZZOQ8J-89" value="ส่งมอบงานและทดสอบเว็บไซต์ " style="rounded=0;whiteSpace=wrap;html=1;fontFamily=Sarabun;fontSource=https%3A%2F%2Ffonts.googleapis.com%2Fcss%3Ffamily%3DSarabun;" vertex="1" parent="R-niYR7ABskK2KZZOQ8J-34">
          <mxGeometry x="255" y="1130" width="120" height="40" as="geometry" />
        </mxCell>
        <mxCell id="R-niYR7ABskK2KZZOQ8J-107" value="" style="edgeStyle=orthogonalEdgeStyle;rounded=0;orthogonalLoop=1;jettySize=auto;html=1;" edge="1" parent="R-niYR7ABskK2KZZOQ8J-34" source="R-niYR7ABskK2KZZOQ8J-90" target="R-niYR7ABskK2KZZOQ8J-94">
          <mxGeometry relative="1" as="geometry" />
        </mxCell>
        <mxCell id="R-niYR7ABskK2KZZOQ8J-90" value="ปิดงาน " style="rounded=0;whiteSpace=wrap;html=1;fontFamily=Sarabun;fontSource=https%3A%2F%2Ffonts.googleapis.com%2Fcss%3Ffamily%3DSarabun;" vertex="1" parent="R-niYR7ABskK2KZZOQ8J-34">
          <mxGeometry x="255" y="1220" width="120" height="40" as="geometry" />
        </mxCell>
        <mxCell id="R-niYR7ABskK2KZZOQ8J-106" value="" style="edgeStyle=orthogonalEdgeStyle;rounded=0;orthogonalLoop=1;jettySize=auto;html=1;" edge="1" parent="R-niYR7ABskK2KZZOQ8J-34" source="R-niYR7ABskK2KZZOQ8J-94" target="R-niYR7ABskK2KZZOQ8J-104">
          <mxGeometry relative="1" as="geometry" />
        </mxCell>
        <mxCell id="R-niYR7ABskK2KZZOQ8J-94" value="แนะนำการใช้งานเบื้องต้น " style="rounded=0;whiteSpace=wrap;html=1;fontFamily=Sarabun;fontSource=https%3A%2F%2Ffonts.googleapis.com%2Fcss%3Ffamily%3DSarabun;" vertex="1" parent="R-niYR7ABskK2KZZOQ8J-34">
          <mxGeometry x="255" y="1300" width="120" height="40" as="geometry" />
        </mxCell>
        <mxCell id="R-niYR7ABskK2KZZOQ8J-100" value="" style="edgeStyle=orthogonalEdgeStyle;rounded=0;orthogonalLoop=1;jettySize=auto;html=1;" edge="1" parent="R-niYR7ABskK2KZZOQ8J-34" source="R-niYR7ABskK2KZZOQ8J-95" target="R-niYR7ABskK2KZZOQ8J-96">
          <mxGeometry relative="1" as="geometry" />
        </mxCell>
        <mxCell id="R-niYR7ABskK2KZZOQ8J-95" value="" style="strokeWidth=2;html=1;shape=mxgraph.flowchart.start_2;whiteSpace=wrap;" vertex="1" parent="R-niYR7ABskK2KZZOQ8J-34">
          <mxGeometry x="140" y="530" width="20" height="20" as="geometry" />
        </mxCell>
        <mxCell id="R-niYR7ABskK2KZZOQ8J-103" value="" style="edgeStyle=orthogonalEdgeStyle;rounded=0;orthogonalLoop=1;jettySize=auto;html=1;entryX=0;entryY=0.5;entryDx=0;entryDy=0;entryPerimeter=0;" edge="1" parent="R-niYR7ABskK2KZZOQ8J-34" source="R-niYR7ABskK2KZZOQ8J-96" target="R-niYR7ABskK2KZZOQ8J-104">
          <mxGeometry relative="1" as="geometry">
            <mxPoint x="150" y="940" as="targetPoint" />
            <Array as="points">
              <mxPoint x="150" y="1410" />
            </Array>
          </mxGeometry>
        </mxCell>
        <mxCell id="R-niYR7ABskK2KZZOQ8J-96" value="" style="strokeWidth=2;html=1;shape=mxgraph.flowchart.start_2;whiteSpace=wrap;" vertex="1" parent="R-niYR7ABskK2KZZOQ8J-34">
          <mxGeometry x="140" y="860" width="20" height="20" as="geometry" />
        </mxCell>
        <mxCell id="R-niYR7ABskK2KZZOQ8J-108" value="" style="edgeStyle=orthogonalEdgeStyle;rounded=0;orthogonalLoop=1;jettySize=auto;html=1;" edge="1" parent="R-niYR7ABskK2KZZOQ8J-34" source="R-niYR7ABskK2KZZOQ8J-104" target="R-niYR7ABskK2KZZOQ8J-36">
          <mxGeometry relative="1" as="geometry" />
        </mxCell>
        <mxCell id="R-niYR7ABskK2KZZOQ8J-104" value="" style="strokeWidth=2;html=1;shape=mxgraph.flowchart.start_2;whiteSpace=wrap;" vertex="1" parent="R-niYR7ABskK2KZZOQ8J-34">
          <mxGeometry x="305" y="1400" width="20" height="20" as="geometry" />
        </mxCell>
        <mxCell id="R-niYR7ABskK2KZZOQ8J-37" value="&lt;font data-font-src=&quot;https://fonts.googleapis.com/css?family=Sarabun&quot; face=&quot;Sarabun&quot;&gt;โจทย์ปัญหา&lt;/font&gt;" style="swimlane;whiteSpace=wrap;html=1;" vertex="1" parent="1">
          <mxGeometry x="-732.5" y="320" width="675" height="190" as="geometry" />
        </mxCell>
        <mxCell id="R-niYR7ABskK2KZZOQ8J-38" value="&lt;p style=&quot;line-height: 120%;&quot;&gt;&lt;font data-font-src=&quot;https://fonts.googleapis.com/css?family=Sarabun&quot; face=&quot;Sarabun&quot; style=&quot;font-size: 14px;&quot;&gt;&lt;b&gt;&lt;u&gt;โจทย์&lt;/u&gt;&lt;/b&gt; จงเขียน Flowchart เพื่ออธิบายกระบวนการในการรับงานทำเว็บไซต์จากลูกค้า&lt;br&gt;&amp;nbsp; &amp;nbsp; &amp;nbsp; &amp;nbsp; &amp;nbsp; (ดูตัวอย่างได้จากเว็บไซท์ https://www.fastwork.com)&lt;br&gt;&lt;/font&gt;&lt;br&gt;&lt;/p&gt;&lt;p style=&quot;line-height: 120%;&quot;&gt;&lt;font face=&quot;Sarabun&quot;&gt;&lt;b&gt;&lt;u&gt;หมายเหตุ&lt;/u&gt;&lt;/b&gt;&amp;nbsp;ควรมีขั้นตอนครบถ้วน เปรียบเสมือนตัวคุณเอง ที่กำลังอยากเริ่มต้นรับงานทำเว็บไซต์จากลูกค้าของคุณเอง&lt;br&gt;&amp;nbsp; &amp;nbsp; &amp;nbsp; &amp;nbsp; คุณจะต้องคำนึงถึงขั้นตอนทุกอย่างให้รอบคอบตั้งแต่การโพสหางาน การพูดคุยเพื่อคัดกรองลูกค้า&lt;br&gt;&amp;nbsp; &amp;nbsp; &amp;nbsp; &amp;nbsp; การพูดคุยเรื่องความต้องการของลูกค้าเป็นข้อๆให้ชัดเจน การเซ็นต์สัญญารับงาน การรับเงินล่วงหน้าก่อน ฯลฯ&lt;/font&gt;&lt;/p&gt;&lt;p style=&quot;line-height: 120%;&quot;&gt;&lt;font face=&quot;Sarabun&quot;&gt;&lt;br&gt;&lt;/font&gt;&lt;/p&gt;" style="text;html=1;align=left;verticalAlign=top;resizable=0;points=[];autosize=1;strokeColor=none;fillColor=none;fontSize=14;" vertex="1" parent="R-niYR7ABskK2KZZOQ8J-37">
          <mxGeometry x="15" y="20" width="660" height="200" as="geometry" />
        </mxCell>
      </root>
    </mxGraphModel>
  </diagram>
</mxfile>
